<?xml version="1.0" encoding="UTF-8" standalone="no"?>
<svg
   height="300"
   width="1200"
   viewBox="-150 -48.38625 1300 108.86906"
   version="1.1"
   id="svg4"
   sodipodi:docname="Facebook-Logo.wine.svg"
   inkscape:version="1.2 (dc2aedaf03, 2022-05-15)"
   xmlns:inkscape="http://www.inkscape.org/namespaces/inkscape"
   xmlns:sodipodi="http://sodipodi.sourceforge.net/DTD/sodipodi-0.dtd"
   xmlns="http://www.w3.org/2000/svg"
   xmlns:svg="http://www.w3.org/2000/svg">
  <defs
     id="defs8" />
  <sodipodi:namedview
     id="namedview6"
     pagecolor="#ffffff"
     bordercolor="#000000"
     borderopacity="0.25"
     inkscape:showpageshadow="2"
     inkscape:pageopacity="0.0"
     inkscape:pagecheckerboard="0"
     inkscape:deskcolor="#d1d1d1"
     showgrid="false"
     inkscape:zoom="1.0175"
     inkscape:cx="599.5086"
     inkscape:cy="321.86732"
     inkscape:window-width="1920"
     inkscape:window-height="1001"
     inkscape:window-x="-9"
     inkscape:window-y="-9"
     inkscape:window-maximized="1"
     inkscape:current-layer="svg4" />
  <path
     d="M 63.35,108.22854 H 25.669 V 14.294654 H 0 v -30.582997 h 25.668 v -21.762 c 0,-25.788 11.353,-44.283001 48.932,-44.283001 7.948,0 20.426,1.602 20.426,1.602 v 28.398001 H 81.92 c -13.354,0 -18.568,4.062 -18.568,15.292 v 20.753 H 94.526 L 91.75,14.294654 H 63.351 Z m 86.46,-126.960883 c -0.549,0 -1.114,0.02 -1.673,0.034 -34.94,0 -50.926,26.2819976 -50.926,63.589961 0,46.997934 20.736,65.807922 51.199,65.807922 17.429,0 28.88,-7.336 35.84,-21.025985 v 18.567985 h 35.84 V -16.275343 H 184.25 V 2.8736552 C 178.567,-9.4463432 166.796,-18.586343 149.81,-18.732343 Z m 9.113,29.422997 c 14.675,0 23.483,10.235997 23.483,27.646973 l 0.034,17.782976 c 0,11.734982 -7.275,25.463964 -23.517,25.463964 -24.97,0 -24.303,-26.961964 -24.303,-35.941949 0,-30.206964 13.304,-34.951964 24.303,-34.951964 z m 75.641,35.298961 c 0,-15.130979 -0.724,-64.640958 63.78,-64.640958 25.893,0 36.705,8.233 36.705,8.233 l -8.69,26.952997 c 0,0 -10.798,-5.946 -24.868,-5.946 -18.021,0 -29.52,10.446997 -29.52,28.82797 l 0.02,13.179982 c 0,17.661976 11.095,29.451961 29.537,29.451961 12.818,0 24.632,-6.001991 24.632,-6.001991 l 8.668,26.389964 c 0,0 -9.886,8.285 -36.303,8.285 -61.418,0 -63.96,-44.419952 -63.96,-64.731925 z m 310.628,-64.687958 c 34.941,0 51.179,26.2819976 51.179,63.589961 0,46.997934 -20.737,65.807922 -51.2,65.807922 -17.429,0 -30.313,-7.335 -37.273,-21.025985 v 18.567985 l -35.389,-0.014 V -78.547344 l 37.574,-3.277 V 1.1866555 c 5.423,-14.5229985 23.245,-19.8849985 35.11,-19.8849985 z m -10.534,29.388997 c -14.675,0 -24.575,10.235997 -24.575,27.646973 l -0.035,17.782976 c -0.022,11.734982 6.856,25.463964 24.61,25.463964 24.97,0 24.303,-26.961964 24.303,-35.941949 0,-30.206964 -13.303,-34.951964 -24.303,-34.951964 z M 400.243,-18.595343 c -39.63,0 -60.552,21.6069982 -60.552,60.004967 v 7.133988 c 0,49.836931 29.381,62.667928 64.409,62.667928 34.047,0 49.458,-9.523 49.458,-9.523 l -7.031,-25.359967 c 0,0 -18.128,7.712991 -37.922,7.712991 -20.52,0 -29.345,-5.229994 -31.607,-24.949967 h 79.564 v -20.34497 c 0,-41.6519711 -23.481,-57.34297 -56.32,-57.34297 z m 0.955,25.3939976 c 13.718,0 22.607,8.4119994 22.119,27.9209784 h -46.25 C 377.869,14.186654 387.455,6.7996546 401.198,6.7996546 Z M 671.292,-18.766343 c -40.697,0 -62.122,22.9339979 -62.122,64.032961 0,56.389922 36.932,65.466922 62.19,65.466922 36.976,0 61.576,-19.906985 61.576,-64.954922 0,-46.8869622 -27.66,-64.544961 -61.644,-64.544961 z m -0.512,29.558997 c 17.895,0 24.986,13.392991 24.986,28.63797 v 13.106982 c 0,18.467976 -9.922,29.149961 -25.054,29.149961 -14.152,0 -24.098,-9.991985 -24.098,-29.149961 V 39.430624 c 0,-20.43197 11.835,-28.63797 24.166,-28.63797 z m 137.01,-29.558997 c -40.697,0 -62.122,22.9339979 -62.122,64.032961 0,56.389922 36.932,65.466922 62.19,65.466922 36.975,0 61.576,-19.906985 61.576,-64.954922 0,-46.8869622 -27.661,-64.544961 -61.644,-64.544961 z m -0.512,29.558997 c 17.895,0 24.985,13.392991 24.985,28.63797 v 13.106982 c 0,18.467976 -9.922,29.149961 -25.053,29.149961 -14.152,0 -24.098,-9.991985 -24.098,-29.149961 V 39.430624 c 0,-20.43197 11.835,-28.63797 24.166,-28.63797 z m 76.355,97.435886 V -78.547344 l 37.683,-3.276 V 43.365621 l 37.386,-59.652964 h 39.796 l -39,61.782961 L 1000,108.22854 H 960.091 L 921.316,47.314615 v 60.913925 z"
     fill="#1877f2"
     id="path2" />
</svg>
