<?xml version="1.0" encoding="UTF-8" standalone="no"?>
<svg
   width="700pt"
   height="700pt"
   version="1.1"
   viewBox="0 0 700 700"
   id="svg43"
   sodipodi:docname="menu.svg"
   inkscape:version="1.2 (dc2aedaf03, 2022-05-15)"
   xmlns:inkscape="http://www.inkscape.org/namespaces/inkscape"
   xmlns:sodipodi="http://sodipodi.sourceforge.net/DTD/sodipodi-0.dtd"
   xmlns="http://www.w3.org/2000/svg"
   xmlns:svg="http://www.w3.org/2000/svg">
  <sodipodi:namedview
     id="namedview45"
     pagecolor="#ffffff"
     bordercolor="#000000"
     borderopacity="0.25"
     inkscape:showpageshadow="2"
     inkscape:pageopacity="0.0"
     inkscape:pagecheckerboard="0"
     inkscape:deskcolor="#d1d1d1"
     inkscape:document-units="pt"
     showgrid="false"
     inkscape:zoom="0.87214286"
     inkscape:cx="466.66667"
     inkscape:cy="422.52252"
     inkscape:window-width="1920"
     inkscape:window-height="1001"
     inkscape:window-x="-9"
     inkscape:window-y="-9"
     inkscape:window-maximized="1"
     inkscape:current-layer="svg43" />
  <defs
     id="defs23">
    <symbol
       id="g"
       overflow="visible">
      <path
         d="m39.078-2.3281c-2.0117 1.043-4.1094 1.8281-6.2969 2.3594s-4.4648 0.79688-6.8281 0.79688c-7.0859 0-12.699-1.9766-16.844-5.9375-4.1367-3.957-6.2031-9.3281-6.2031-16.109 0-6.7891 2.0664-12.164 6.2031-16.125 4.1445-3.9688 9.7578-5.9531 16.844-5.9531 2.3633 0 4.6406 0.26562 6.8281 0.79688s4.2852 1.3242 6.2969 2.375v8.7969c-2.0312-1.3828-4.0391-2.3984-6.0156-3.0469-1.9688-0.64453-4.0469-0.96875-6.2344-0.96875-3.9062 0-6.9844 1.2578-9.2344 3.7656-2.2422 2.5-3.3594 5.9531-3.3594 10.359 0 4.3867 1.1172 7.8359 3.3594 10.344 2.25 2.5 5.3281 3.75 9.2344 3.75 2.1875 0 4.2656-0.32031 6.2344-0.96875 1.9766-0.64453 3.9844-1.6602 6.0156-3.0469z"
         id="path2" />
    </symbol>
    <symbol
       id="f"
       overflow="visible">
      <path
         d="m16.031-40.953v9.0625h10.516v7.2812h-10.516v13.531c0 1.4805 0.28906 2.4805 0.875 3 0.59375 0.52344 1.7656 0.78125 3.5156 0.78125h5.2344v7.2969h-8.7344c-4.0312 0-6.8867-0.83594-8.5625-2.5156-1.6797-1.6875-2.5156-4.5391-2.5156-8.5625v-13.531h-5.0781v-7.2812h5.0781v-9.0625z"
         id="path5" />
    </symbol>
    <symbol
       id="e"
       overflow="visible">
      <path
         d="m26.594-27.234v-17.078h10.266v44.312h-10.266v-4.6094c-1.3984 1.875-2.9453 3.25-4.6406 4.125-1.6875 0.875-3.6406 1.3125-5.8594 1.3125-3.9297 0-7.1562-1.5625-9.6875-4.6875-2.5234-3.125-3.7812-7.1445-3.7812-12.062 0-4.9141 1.2578-8.9375 3.7812-12.062 2.5312-3.125 5.7578-4.6875 9.6875-4.6875 2.1953 0 4.1445 0.44531 5.8438 1.3281 1.707 0.88672 3.2578 2.2578 4.6562 4.1094zm-6.7188 20.656c2.1875 0 3.8516-0.79688 5-2.3906 1.1445-1.5938 1.7188-3.9102 1.7188-6.9531 0-3.0391-0.57422-5.3594-1.7188-6.9531-1.1484-1.5938-2.8125-2.3906-5-2.3906-2.168 0-3.8242 0.79688-4.9688 2.3906-1.1484 1.5938-1.7188 3.9141-1.7188 6.9531 0 3.043 0.57031 5.3594 1.7188 6.9531 1.1445 1.5938 2.8008 2.3906 4.9688 2.3906z"
         id="path8" />
    </symbol>
    <symbol
       id="d"
       overflow="visible">
      <path
         d="m21.875-6.5781c2.1758 0 3.8359-0.79688 4.9844-2.3906 1.1562-1.5938 1.7344-3.9102 1.7344-6.9531 0-3.0391-0.57812-5.3594-1.7344-6.9531-1.1484-1.5938-2.8086-2.3906-4.9844-2.3906-2.1875 0-3.8672 0.80469-5.0312 2.4062-1.168 1.6055-1.75 3.918-1.75 6.9375 0 3.0234 0.58203 5.3359 1.75 6.9375 1.1641 1.6055 2.8438 2.4062 5.0312 2.4062zm-6.7812-20.656c1.4062-1.8516 2.9609-3.2227 4.6719-4.1094 1.707-0.88281 3.6719-1.3281 5.8906-1.3281 3.9375 0 7.1641 1.5625 9.6875 4.6875 2.5195 3.125 3.7812 7.1484 3.7812 12.062 0 4.918-1.2617 8.9375-3.7812 12.062-2.5234 3.125-5.75 4.6875-9.6875 4.6875-2.2188 0-4.1836-0.44531-5.8906-1.3281-1.7109-0.88281-3.2656-2.2539-4.6719-4.1094v4.6094h-10.188v-44.312h10.188z"
         id="path11" />
    </symbol>
    <symbol
       id="c"
       overflow="visible">
      <path
         d="m0.28125-42.516h11.031l11.266 31.375 11.25-31.375h11.031l-15.75 42.516h-13.078z"
         id="path14" />
    </symbol>
    <symbol
       id="b"
       overflow="visible">
      <path
         d="m4.9062-31.891h10.188v31.891h-10.188zm0-12.422h10.188v8.3125h-10.188z"
         id="path17" />
    </symbol>
    <symbol
       id="a"
       overflow="visible">
      <path
         d="m36.969-19.422v19.422h-10.25v-14.812c0-2.7891-0.0625-4.707-0.1875-5.75-0.125-1.0391-0.33984-1.8125-0.64062-2.3125-0.39844-0.65625-0.9375-1.1719-1.625-1.5469s-1.4648-0.5625-2.3281-0.5625c-2.1367 0-3.8125 0.82422-5.0312 2.4688-1.2109 1.6484-1.8125 3.9219-1.8125 6.8281v15.688h-10.188v-44.312h10.188v17.078c1.5391-1.8516 3.1719-3.2227 4.8906-4.1094 1.7266-0.88281 3.6406-1.3281 5.7344-1.3281 3.6875 0 6.4844 1.1328 8.3906 3.3906 1.9062 2.2617 2.8594 5.5469 2.8594 9.8594z"
         id="path20" />
    </symbol>
  </defs>
  <g
     id="g41"
     transform="translate(0,70)">
    <path
       d="m 420,70 c 0,18.566 -7.375,36.371 -20.504,49.496 C 386.371,132.625 368.566,140 350,140 331.434,140 313.629,132.625 300.504,119.496 287.375,106.371 280,88.566 280,70 280,51.434 287.375,33.629 300.504,20.504 313.629,7.375 331.434,0 350,0 368.566,0 386.371,7.375 399.496,20.504 412.625,33.629 420,51.434 420,70 Z m -70,140 c -18.566,0 -36.371,7.375 -49.496,20.504 C 287.375,243.629 280,261.434 280,280 c 0,18.566 7.375,36.371 20.504,49.496 C 313.629,342.625 331.434,350 350,350 c 18.566,0 36.371,-7.375 49.496,-20.504 C 412.625,316.371 420,298.566 420,280 420,261.434 412.625,243.629 399.496,230.504 386.371,217.375 368.566,210 350,210 Z m 0,210 c -18.566,0 -36.371,7.375 -49.496,20.504 C 287.375,453.629 280,471.434 280,490 c 0,18.566 7.375,36.371 20.504,49.496 C 313.629,552.625 331.434,560 350,560 c 18.566,0 36.371,-7.375 49.496,-20.504 C 412.625,526.371 420,508.566 420,490 420,471.434 412.625,453.629 399.496,440.504 386.371,427.375 368.566,420 350,420 Z M 560,140 c 18.566,0 36.371,-7.375 49.496,-20.504 C 622.625,106.371 630,88.566 630,70 630,51.434 622.625,33.629 609.496,20.504 596.371,7.375 578.566,0 560,0 541.434,0 523.629,7.375 510.504,20.504 497.375,33.629 490,51.434 490,70 c 0,18.566 7.375,36.371 20.504,49.496 C 523.629,132.625 541.434,140 560,140 Z m 0,70 c -18.566,0 -36.371,7.375 -49.496,20.504 C 497.375,243.629 490,261.434 490,280 c 0,18.566 7.375,36.371 20.504,49.496 C 523.629,342.625 541.434,350 560,350 c 18.566,0 36.371,-7.375 49.496,-20.504 C 622.625,316.371 630,298.566 630,280 630,261.434 622.625,243.629 609.496,230.504 596.371,217.375 578.566,210 560,210 Z m 0,210 c -18.566,0 -36.371,7.375 -49.496,20.504 C 497.375,453.629 490,471.434 490,490 c 0,18.566 7.375,36.371 20.504,49.496 C 523.629,552.625 541.434,560 560,560 c 18.566,0 36.371,-7.375 49.496,-20.504 C 622.625,526.371 630,508.566 630,490 630,471.434 622.625,453.629 609.496,440.504 596.371,427.375 578.566,420 560,420 Z M 140,0 C 121.434,0 103.629,7.375 90.504,20.504 77.375,33.629 70,51.434 70,70 70,88.566 77.375,106.371 90.504,119.496 103.629,132.625 121.434,140 140,140 c 18.566,0 36.371,-7.375 49.496,-20.504 C 202.625,106.371 210,88.566 210,70 210,51.434 202.625,33.629 189.496,20.504 176.371,7.375 158.566,0 140,0 Z m 0,210 c -18.566,0 -36.371,7.375 -49.496,20.504 C 77.375,243.629 70,261.434 70,280 c 0,18.566 7.375,36.371 20.504,49.496 C 103.629,342.625 121.434,350 140,350 c 18.566,0 36.371,-7.375 49.496,-20.504 C 202.625,316.371 210,298.566 210,280 210,261.434 202.625,243.629 189.496,230.504 176.371,217.375 158.566,210 140,210 Z m 0,210 c -18.566,0 -36.371,7.375 -49.496,20.504 C 77.375,453.629 70,471.434 70,490 c 0,18.566 7.375,36.371 20.504,49.496 C 103.629,552.625 121.434,560 140,560 c 18.566,0 36.371,-7.375 49.496,-20.504 C 202.625,526.371 210,508.566 210,490 210,471.434 202.625,453.629 189.496,440.504 176.371,427.375 158.566,420 140,420 Z"
       id="path25" />
  </g>
</svg>
